M48
; DRILL file {KiCad (5.1.6)-1} date 06/23/20 18:50:58
; FORMAT={-:-/ absolute / inch / decimal}
; #@! TF.CreationDate,2020-06-23T18:50:58-07:00
; #@! TF.GenerationSoftware,Kicad,Pcbnew,(5.1.6)-1
FMAT,2
INCH
T1C0.0157
T2C0.0300
T3C0.0370
T4C0.0394
%
G90
G05
T1
X4.75Y-1.45
X5.375Y-3.2
X5.4Y-2.475
X5.7Y-2.3
X5.925Y-1.8715
X6.45Y-1.225
T2
X5.9Y-1.6
X5.9Y-1.7
X5.9Y-1.8
X6.0Y-1.6
X6.0Y-1.7
X6.0Y-1.8
T3
X6.0638Y-1.3719
X6.0638Y-1.175
X6.3Y-1.3719
X6.3Y-1.175
T4
X4.6Y-1.25
X4.6Y-1.35
X4.6Y-3.725
X4.7Y-3.725
X4.8Y-3.725
X4.9Y-3.725
X5.0Y-3.725
X5.1Y-3.725
X5.2Y-3.725
X5.3Y-3.725
X5.475Y-3.725
X5.575Y-3.725
X5.675Y-3.725
X5.775Y-3.725
X5.875Y-3.725
X5.975Y-3.725
X6.075Y-3.725
X6.175Y-3.725
X6.275Y-3.725
X6.275Y-2.75
X6.275Y-2.85
X6.275Y-2.95
X6.275Y-3.05
X6.275Y-3.15
X6.275Y-3.25
X6.275Y-3.35
X6.275Y-3.45
X6.275Y-3.55
X4.6Y-2.75
X4.6Y-2.85
X4.6Y-2.95
X4.6Y-3.05
X4.6Y-3.15
X4.6Y-3.25
X4.6Y-3.35
X4.6Y-3.45
X4.6Y-3.55
X4.6Y-1.575
X4.6Y-1.675
X4.6Y-1.775
X4.6Y-1.875
X4.6Y-1.975
X4.6Y-2.075
X4.6Y-2.175
X4.6Y-2.275
X4.6Y-2.375
X4.6Y-2.475
X6.275Y-1.7
X6.275Y-1.8
X6.275Y-1.9
X6.275Y-2.0
X6.275Y-2.1
X6.275Y-2.2
X6.275Y-2.3
X6.275Y-2.4
X6.275Y-2.5
X6.275Y-2.6
T4
G00X4.89Y-1.4382
M15
G01X4.89Y-1.4618
M16
G05
G00X5.0632Y-1.3319
M15
G01X5.0868Y-1.3319
M16
G05
G00X5.0632Y-1.5681
M15
G01X5.0868Y-1.5681
M16
G05
T0
M30
